<?xml version="1.0" encoding="UTF-8"?>
<svg version="1.1" viewBox="0 0 954 890" width="1280" height="1280" xmlns="http://www.w3.org/2000/svg">
<path transform="translate(0)" d="m0 0h954v890h-954z"/>
<path transform="translate(545,127)" d="m0 0h7l5 5 10 16 8 12v2l-7-1v8l-6-1 1 8-7-2 1 7-9-1 1 2v7l-8-1 1 2v6l-7 1 1 7-11 1 1 9-2 1h-7v8l-1 2h-8l-1 8h-7v8h-9l-1 10-2 1h-4l-1 7-9 1v9l-2 2-8 1-2 9-7 1-2 7-7 1v9l-8 1v8h-9l1 9-4 1h-5v9h-9l1 9h-10l1 8-1 1h-8l-1 8-1 1h-6v8l-8 1 1 8-8 1v8h-9l1 7-2 1h-7l1 8-9 1-1 8-9-1-19-4-8 22-11 10-14 11-17 13-9 4-7-1-2-2v-5l3-6v-7l-7-9-11-23-4-14-3-2-9-2-5-4 1-5 6-7 23-16 13-8 10-9 9-8 14-8 6-3 5 6 11 25-7-21-6-13 12-10 42-33 15-12 42-33 15-12 42-33 15-12 17-13 16-13 17-13 10-6z" fill="#FEFEFE"/>
<path transform="translate(525,222)" d="m0 0 4 2 13 10 15 12 42 33 15 12 28 22 6 5-9 21-3 11 10-23 5-6 14 7 13 10 10 10 18 11 17 12 8 7 2 4-1 4-3 3-12 3-6 18-8 16-7 11-2 2v7l3 6v5l-4 3-8-1-10-6-14-11-16-13-8-7-8-22-19 4-9 2-1-9-9-1 1-8h-7l-2-1 1-7h-9v-8l-8-1 1-8-8-1v-8h-6l-1-1-1-7-8-1-1-8-9-1 1-9h-9v-9h-8l-1-3 1-7-9 1v-9l-8-1v-8l-8-2-1-7-7-1-2-9-2-4 5-2h4l1-6 5-1 2-10 11 1v-9l6 1v-9h8l1-10z" fill="#FDFDFD"/>
<path transform="translate(623,408)" d="m0 0 3 4 6 16 5 4v121h-32v-140l5-2z" fill="#FEFEFE"/>
<path transform="translate(323,409)" d="m0 0 9 1 9 2 1 1v140h-31l-1-1v-120l5-4 7-18z" fill="#FEFEFE"/>
<path transform="translate(395,127)" d="m0 0h8l11 6 16 13 16 12 12 10 9 7-5 5-28 22-10 8h-2v-5l-11-1 1-8h-7l1-8-8 1 1-9-9 1 1-7-7 2 1-8-6 1v-8l-7 1 2-5 15-23 4-6z" fill="#FEFEFE"/>
<path transform="translate(627,599)" d="m0 0h30l6 3 5 4 4 7 2 8v36l-2 9-6 8-5 4-5 2-6 1h-22l-1-1z" fill="#FEFEFE"/>
<path transform="translate(328,599)" d="m0 0h30l8 4 6 7 3 8v8l-3 8-3 3 1 4 4 8v14l-3 6-6 7-8 4-4 1h-24l-1-1z" fill="#FEFEFE"/>
<path transform="translate(411,599)" d="m0 0h14l1 59 3 7 7 1 5-5 1-61 1-1h14v64l-4 9-5 5-4 3-7 2h-7l-8-3-6-5-4-7-1-2z" fill="#FEFEFE"/>
<path transform="translate(670,360)" d="m0 0h8l8 4 5 4 3 6-1 7-15 28-7 13-4 3-7-2-4-6-1-3v-17l3-18 4-11 6-7z"/>
<path transform="translate(269,360)" d="m0 0h8l7 6 4 9 3 14 1 8v17l-4 8-6 3-5-2-5-8-15-29-4-8 1-7 5-5 7-5z"/>
<path transform="translate(551,599)" d="m0 0h14l1 1v65l24 1v14l-1 1h-37l-1-1z" fill="#FEFEFE"/>
<path transform="translate(496,599)" d="m0 0h14v81l-1 1h-13z" fill="#FEFEFE"/>
<path transform="translate(274,599)" d="m0 0h14v82h-13l-1-1z" fill="#FEFEFE"/>
<path transform="translate(306,719)" d="m0 0 7 1 5 5 1 2v28l-4 6-4 2-8-1-5-5-1-2v-28l4-6z" fill="#FEFEFE"/>
<path transform="translate(643,613)" d="m0 0h9l5 3 2 4v37l-3 6-6 3h-8v-52z"/>
<path transform="translate(472,720)" d="m0 0h6l7 19 1-18 1-1h5l1 1v40l-1 1h-6l-7-19-1 18-1 1h-5z" fill="#FEFEFE"/>
<path transform="translate(477,396)" d="m0 0h26v26h-26z" fill="#FEFEFE"/>
<path transform="translate(444,396)" d="m0 0h26v26h-26z" fill="#FEFEFE"/>
<path transform="translate(477,363)" d="m0 0h26v26h-26z" fill="#FEFEFE"/>
<path transform="translate(444,363)" d="m0 0h26v26h-26z" fill="#FEFEFE"/>
<path transform="translate(688,720)" d="m0 0h12l6 4 2 6-1 10v4l1 4v13l-1 1h-5l-1-1-1-14-6-2v16l-1 1h-5z" fill="#FEFEFE"/>
<path transform="translate(578,720)" d="m0 0h5l1 1v17h8v-18h6l1 1v40l-1 1h-5l-1-1v-17h-8v17l-1 1h-5l-1-1v-40z" fill="#FEFEFE"/>
<path transform="translate(420,720)" d="m0 0h8l5 24 3 17-1 1h-5l-2-5v-3l-8 1-2 7h-6l1-9 6-32z" fill="#FEFEFE"/>
<path transform="translate(363,719)" d="m0 0 7 1 5 4 1 2v7l-5 1-3-7h-5l-1 1v26l1 1h5l2-7h-4v-6h10v14l-4 5-4 2-8-1-5-5-1-4v-24l2-5 4-4z" fill="#FEFEFE"/>
<path transform="translate(195,719)" d="m0 0 7 1 5 5 1 5-1 1h-5l-3-4h-6l1 6 12 11 2 4v7l-4 6-4 2-8-1-5-5-1-5 5-1 2 1v3h6l1-1v-7l-4-2-7-6-3-5v-7l4-6z" fill="#FEFEFE"/>
<path transform="translate(743,720)" d="m0 0h18v6l-1 1h-11l1 10 7 1v6l-7 1-1 10h11l1 1v6h-18z" fill="#FEFEFE"/>
<path transform="translate(634,720)" d="m0 0h18v6l-1 1h-11l1 10 7 1v6l-7 1-1 10h11l1 1v6h-18z" fill="#FEFEFE"/>
<path transform="translate(244,720)" d="m0 0h5l1 1v34h11l1 1v5l-1 1h-17l-1-1v-40z" fill="#FEFEFE"/>
<path transform="translate(343,646)" d="m0 0h10l6 5 1 5-3 7-6 3h-8z"/>
<path transform="translate(306,726)" d="m0 0 5 1 2 3v22l-3 4-5-1-2-3v-22z"/>
<path transform="translate(343,613)" d="m0 0h10l5 3 2 3v6l-4 5-2 1h-11z"/>
<path transform="translate(694,727)" d="m0 0h6l1 2v8l-3 2h-4z"/>
<path transform="translate(655,342)" d="m0 0 4 1 1 4-3 3-4-1-1-4z" fill="#454545"/>
<path transform="translate(290,342)" d="m0 0 4 1 1 4-3 3-4-1-1-4z" fill="#454545"/>
<path transform="translate(642,377)" d="m0 0 5 1v5l-1 1h-5l-1-5z" fill="#303030"/>
<path transform="translate(302,377)" d="m0 0 4 1 1 5-1 1h-5l-1-1v-5z" fill="#363636"/>
<path transform="translate(646,360)" d="m0 0h5l1 1v5l-5 1-2-2z" fill="#363636"/>
<path transform="translate(296,360)" d="m0 0h5l1 5-2 2-5-1v-5z" fill="#363636"/>
<path transform="translate(423,735)" d="m0 0 2 1 1 11h-5z"/>
</svg>
